<svg width="24" height="24" viewBox="0 0 24 24" fill="none" xmlns="http://www.w3.org/2000/svg">
<path d="M3.42857 13.7143L12.8571 13.7151C13.7604 13.7151 14.5012 14.4141 14.5667 15.3014L14.5714 15.4294V17.5714C14.5706 21.1714 10.8969 22.2857 8.14286 22.2857C5.44394 22.2857 1.8609 21.2156 1.71866 17.7844L1.71429 17.5714V15.4286C1.71429 14.5253 2.41406 13.7845 3.3007 13.719L3.42857 13.7143ZM14.76 13.7151L20.5714 13.7143C21.4747 13.7143 22.2155 14.414 22.281 15.3007L22.2857 15.4286V17.1428C22.2849 20.3648 19.3457 21.4286 17.1429 21.4286C16.236 21.4286 15.2066 21.2443 14.3066 20.8071C14.9514 20.0408 15.3699 19.0652 15.4229 17.8382L15.4286 17.5714V15.4294C15.4286 14.8279 15.2153 14.2802 14.8681 13.8429L14.76 13.7151L20.5714 13.7143L14.76 13.7151ZM8.14286 2.57141C10.746 2.57141 12.8571 4.68255 12.8571 7.2857C12.8571 9.88884 10.746 12 8.14286 12C5.53971 12 3.42857 9.88884 3.42857 7.2857C3.42857 4.68255 5.53971 2.57141 8.14286 2.57141ZM17.5714 4.2857C19.7014 4.2857 21.4286 6.01284 21.4286 8.14284C21.4286 10.2728 19.7014 12 17.5714 12C15.4414 12 13.7143 10.2728 13.7143 8.14284C13.7143 6.01284 15.4414 4.2857 17.5714 4.2857Z" fill="white"/>
</svg>
